<svg xmlns="http://www.w3.org/2000/svg" viewBox="0 0 134.75 134.75"><defs><style>.cls-1{fill:#49cc68;}.cls-2{fill:#353535;}</style></defs><title>Asset 5</title><g id="Layer_2" data-name="Layer 2"><g id="Layer_4" data-name="Layer 4"><g id="Layer_6" data-name="Layer 6"><path class="cls-1" d="M67.38,0A67.38,67.38,0,0,0,0,67.38v67.37H92.1a41.62,41.62,0,1,1,42.65-41.58V0Z"/><path class="cls-1" d="M131.53,109.25a15.91,15.91,0,0,0-28.59,9.6,15.94,15.94,0,0,0,6.31,12.68,41.18,41.18,0,0,1-7.06,2.25,41.65,41.65,0,0,1-8,1h40.51V93.17a41.83,41.83,0,0,1-1,9A41.16,41.16,0,0,1,131.53,109.25Z"/><path class="cls-2" d="M118.84,102.94a15.9,15.9,0,0,0-15.9,15.91,15.72,15.72,0,0,0,.88,5.2,67.55,67.55,0,0,0,20.24-20.23A15.8,15.8,0,0,0,118.84,102.94Z"/></g></g></g></svg>