<svg xmlns="http://www.w3.org/2000/svg" viewBox="0 0 331.18 98.3"><defs><style>.cls-1{fill:#49cc68;}.cls-2{fill:#ffbc00;}.cls-3{fill:#ffec00;}.cls-4{fill:#ffb000;}.cls-5{fill:#ffd400;}</style></defs><title>dandelion_logo_c</title><g id="Layer_2" data-name="Layer 2"><g id="Layer_1_copy" data-name="Layer 1 copy"><g id="_Group_" data-name="&lt;Group&gt;"><path class="cls-1" d="M327.94,97.51l.08,0h0a58.19,58.19,0,0,0-45-76.17c.15,1,.25,2,.31,3a58.19,58.19,0,0,1,44.64,73.18Z"/><path class="cls-2" d="M247,2.58h0v0a25.2,25.2,0,0,0-12.77,14.48h0A25.32,25.32,0,0,0,240,42.88l.28.28a25.27,25.27,0,0,0,29,4.83c.57-.28,1.13-.58,1.67-.89a25.29,25.29,0,0,0,12.46-23.23c0-.72-.11-1.43-.22-2.14a25.39,25.39,0,0,0-2.32-7.56,26.26,26.26,0,0,0-2.53-4.12,24.48,24.48,0,0,0-3.37-3.66A25.29,25.29,0,0,0,247,2.58Z"/><path class="cls-2" d="M240,42.89l.27.28a40.68,40.68,0,0,1,15.53-15,3.76,3.76,0,0,1-.88-1.07A40.62,40.62,0,0,0,240,42.89Z"/><path class="cls-3" d="M255.77,28.14a3.76,3.76,0,0,1-.88-1.07l-.12-.24a3.69,3.69,0,0,1,6.62-3.25l.12.25a3.75,3.75,0,0,1,.11,2.66,3.69,3.69,0,0,1-4.69,2.3A3.87,3.87,0,0,1,255.77,28.14Z"/><path class="cls-4" d="M247,2.6a25.17,25.17,0,0,0-12.8,14.5A25.17,25.17,0,0,0,247,2.6Z"/><path class="cls-4" d="M240.24,43.17a40.68,40.68,0,0,1,15.53-15,3.87,3.87,0,0,0,1.16.65,3.69,3.69,0,0,0,4.69-2.3,3.59,3.59,0,0,0,.19-1.06,40.65,40.65,0,0,1,14.61-2.33,41.42,41.42,0,0,1,6.95.77,25.28,25.28,0,0,1-12.46,23.24c-.53.31-1.09.61-1.66.89A25.29,25.29,0,0,1,240.24,43.17Z"/><path class="cls-2" d="M261.51,23.83a40.54,40.54,0,0,1,21.65-2.09,19.19,19.19,0,0,1,.21,2.13,41.42,41.42,0,0,0-6.95-.77,40.65,40.65,0,0,0-14.61,2.33A3.62,3.62,0,0,0,261.51,23.83Z"/><path class="cls-5" d="M235.43,36.42a25.2,25.2,0,0,1-1.22-19.31A25.19,25.19,0,0,0,247,2.6h0a25.33,25.33,0,0,1,31.3,7.46,25.58,25.58,0,0,1,2.52,4.13,25.13,25.13,0,0,1,2.33,7.56,40.54,40.54,0,0,0-21.65,2.09l-.12-.25a3.69,3.69,0,0,0-6.62,3.25l.12.24A40.62,40.62,0,0,0,240,42.89,25.17,25.17,0,0,1,235.43,36.42Z"/></g><path class="cls-1" d="M0,49.64a99,99,0,0,1,14.11-1c9.07,0,15.26,1.87,19.72,5.62,4.75,3.81,7.63,9.64,7.63,17.85,0,8.71-3,15.11-7.56,19.29C29.08,95.78,21.38,98,12,98A98.43,98.43,0,0,1,0,97.36ZM8.85,90.81a32.49,32.49,0,0,0,4.9.22c11.52.07,18.35-6.34,18.35-18.65C32.18,61.73,26,55.54,14.9,55.54a29.51,29.51,0,0,0-6.05.5Z"/><path class="cls-1" d="M76,89.08a46.57,46.57,0,0,0,.58,8.43h-8L68,93.62h-.22A12.81,12.81,0,0,1,57.37,98.3c-7.06,0-11-5.11-11-10.44,0-8.78,7.85-13.32,20.81-13.24V74c0-2.3-.94-6.12-7.13-6.12a18.61,18.61,0,0,0-9.43,2.59l-1.73-5.76a25.29,25.29,0,0,1,12.67-3.09C72.77,61.66,76,68.79,76,76.49Zm-8.64-8.71c-6.26-.07-12.23,1.23-12.23,6.55,0,3.46,2.23,5,5,5a7.28,7.28,0,0,0,7-4.82,6.15,6.15,0,0,0,.21-1.94Z"/><path class="cls-1" d="M85.37,72.89c0-4-.15-7.42-.29-10.44h7.7l.43,5.26h.22a12.86,12.86,0,0,1,11.23-6c6.12,0,12.45,4,12.45,15V97.51h-8.85V77.71c0-5-1.88-8.85-6.7-8.85A7.43,7.43,0,0,0,94.65,74a8.18,8.18,0,0,0-.43,2.81V97.51H85.37Z"/><path class="cls-1" d="M158.86,46.4V87.64c0,3.6.14,7.49.29,9.87H151.3L150.87,92h-.15a12.57,12.57,0,0,1-11.37,6.34c-8.42,0-15-7.13-15-17.93-.08-11.73,7.27-18.71,15.69-18.71,4.82,0,8.28,1.94,9.86,4.53H150V46.4ZM150,77.06a13.56,13.56,0,0,0-.21-2.37,7.76,7.76,0,0,0-7.63-6.19c-5.69,0-8.86,5-8.86,11.51s3.17,11.16,8.79,11.16a7.82,7.82,0,0,0,7.63-6.26,10.14,10.14,0,0,0,.28-2.59Z"/><path class="cls-1" d="M174.62,82.46c.21,6.34,5.11,9.07,10.8,9.07A28.33,28.33,0,0,0,195.13,90l1.3,6a31.39,31.39,0,0,1-12.24,2.24c-11.37,0-18.07-7-18.07-17.71,0-9.72,5.91-18.86,17.14-18.86S198.37,71,198.37,78.72a21.13,21.13,0,0,1-.29,3.74ZM190,76.27c.08-3.24-1.36-8.56-7.27-8.56-5.47,0-7.77,5-8.13,8.56Z"/><path class="cls-1" d="M205.5,46.4h8.85V97.51H205.5Z"/><rect class="cls-1" x="223.99" y="62.45" width="8.85" height="35.06"/><path class="cls-1" d="M275.91,79.65c0,12.89-9.07,18.65-18,18.65-9.86,0-17.56-6.77-17.56-18.07,0-11.52,7.56-18.57,18.14-18.57S275.91,69,275.91,79.65ZM249.49,80c0,6.77,3.38,11.88,8.71,11.88,5,0,8.57-4.89,8.57-12,0-5.47-2.45-11.8-8.5-11.8C252,68.07,249.49,74.18,249.49,80Z"/><path class="cls-1" d="M283,72.89c0-4-.15-7.42-.29-10.44h7.7l.43,5.26h.22a12.86,12.86,0,0,1,11.23-6c6.12,0,12.45,4,12.45,15V97.51h-8.85V77.71c0-5-1.87-8.85-6.7-8.85A7.44,7.44,0,0,0,292.3,74a8.18,8.18,0,0,0-.43,2.81V97.51H283Z"/></g></g></svg>