<svg xmlns="http://www.w3.org/2000/svg" viewBox="0 0 626.59 169.09"><defs><style>.cls-1{fill:#ffbc00;}.cls-2{fill:#ffec00;}.cls-3{fill:#ffb000;}.cls-4{fill:#49cc68;}.cls-5{fill:#ffd400;}.cls-6{fill:#232323;}</style></defs><title>Dandelion_Logo_1</title><g id="Layer_2" data-name="Layer 2"><g id="Layer_1_copy" data-name="Layer 1 copy"><g id="_Group_" data-name="&lt;Group&gt;"><path class="cls-1" d="M613,12.38h-.06A44.15,44.15,0,0,0,581.42.05s0,0,0,0a44.22,44.22,0,0,0-24.65,8.07,45.13,45.13,0,0,0-6.43,5.53A44.23,44.23,0,0,0,542.37,25l-.3.62a44.36,44.36,0,0,0,9.46,50.69c.81.77,1.63,1.51,2.47,2.21a44.37,44.37,0,0,0,45.76,6.57c1.16-.49,2.29-1,3.4-1.63A44.33,44.33,0,0,0,613,12.38Z"/><path class="cls-1" d="M542.35,25l-.29.62a71.28,71.28,0,0,1,34.09,16.56,6.25,6.25,0,0,1,1.23-2.1A71.4,71.4,0,0,0,542.35,25Z"/><path class="cls-2" d="M576.15,42.16a6.25,6.25,0,0,1,1.23-2.1l.32-.34a6.47,6.47,0,0,1,11,4.48A6.45,6.45,0,0,1,587,48.68l-.33.34a6.31,6.31,0,0,1-2.47,1.46,6.71,6.71,0,0,1-1.86.32,6.47,6.47,0,0,1-6.59-6.34A6.28,6.28,0,0,1,576.15,42.16Z"/><path class="cls-3" d="M613,12.38A44.15,44.15,0,0,0,581.38,0,44.18,44.18,0,0,0,613,12.38Z"/><path class="cls-4" d="M533.86,167.66l.08.07,0,0a71.73,71.73,0,0,0,69.18-84.31c-1.1.6-2.24,1.14-3.39,1.63a71.73,71.73,0,0,1-65.89,82.59Z"/><path class="cls-3" d="M542.06,25.6a71.28,71.28,0,0,1,34.09,16.56,6.28,6.28,0,0,0-.37,2.3,6.47,6.47,0,0,0,6.59,6.34,6.71,6.71,0,0,0,1.86-.32,71.24,71.24,0,0,1,12.61,22.67,70.5,70.5,0,0,1,2.91,11.92A44.34,44.34,0,0,1,554,78.5c-.84-.7-1.67-1.44-2.47-2.21A44.33,44.33,0,0,1,542.06,25.6Z"/><path class="cls-1" d="M586.7,49a71.16,71.16,0,0,1,13.43,23,69.63,69.63,0,0,1,3,11.4c-1.1.6-2.24,1.14-3.39,1.63a70.5,70.5,0,0,0-2.91-11.92,71.24,71.24,0,0,0-12.61-22.67A6.31,6.31,0,0,0,586.7,49Z"/><path class="cls-5" d="M550.29,13.61A44.2,44.2,0,0,1,581.36,0,44.14,44.14,0,0,0,613,12.38h0a44.34,44.34,0,0,1,10.49,48.29,43.44,43.44,0,0,1-4,7.75,44.57,44.57,0,0,1-16.33,15,69.63,69.63,0,0,0-3-11.4A71.16,71.16,0,0,0,586.7,49l.33-.34a6.47,6.47,0,0,0-4.92-10.82,6.53,6.53,0,0,0-4.41,1.86l-.32.34a71.4,71.4,0,0,0-35-15.08A44.27,44.27,0,0,1,550.29,13.61Z"/></g><path class="cls-4" d="M0,86.54a168.72,168.72,0,0,1,23.93-1.71c15.39,0,25.89,3.18,33.46,9.53,8.06,6.47,13,16.36,13,30.28,0,14.78-5,25.64-12.82,32.73-8.19,7.45-21.25,11.23-37.25,11.23A167.23,167.23,0,0,1,0,167.5Zm15,69.85a55.4,55.4,0,0,0,8.3.37c19.54.12,31.14-10.75,31.14-31.63.13-18.07-10.38-28.58-29.18-28.58A48.79,48.79,0,0,0,15,97.41Z"/><path class="cls-4" d="M129,153.46a79.59,79.59,0,0,0,1,14.29H116.37l-1.1-6.6h-.36c-3.54,4.64-9.77,7.94-17.59,7.94-12,0-18.68-8.67-18.68-17.71,0-14.89,13.31-22.59,35.29-22.47v-1c0-3.91-1.59-10.38-12.09-10.38a31.55,31.55,0,0,0-16,4.39l-2.93-9.77c4.4-2.68,12.09-5.25,21.5-5.25,19,0,24.54,12.09,24.54,25.16ZM114.3,138.68c-10.63-.12-20.76,2.08-20.76,11.12,0,5.86,3.78,8.54,8.54,8.54a12.33,12.33,0,0,0,11.85-8.18,10,10,0,0,0,.37-3.29Z"/><path class="cls-4" d="M144.82,126c0-6.84-.24-12.57-.49-17.7H157.4l.73,8.91h.37a21.84,21.84,0,0,1,19.05-10.26c10.38,0,21.13,6.72,21.13,25.53v35.29h-15V134.17c0-8.55-3.17-15-11.35-15-6,0-10.14,4.28-11.73,8.8a14.13,14.13,0,0,0-.73,4.76v35.05h-15Z"/><path class="cls-4" d="M269.5,81v70c0,6.1.24,12.7.49,16.73H256.68l-.74-9.41h-.24c-3.54,6.6-10.75,10.75-19.3,10.75-14.28,0-25.52-12.09-25.52-30.41-.12-19.9,12.34-31.75,26.62-31.75,8.19,0,14.05,3.3,16.73,7.7h.25V81Zm-15,52a21.9,21.9,0,0,0-.37-4,13.17,13.17,0,0,0-12.94-10.51c-9.65,0-15,8.55-15,19.54S231.52,157,241,157a13.25,13.25,0,0,0,13-10.62,16.63,16.63,0,0,0,.49-4.4Z"/><path class="cls-4" d="M296.24,142.22c.36,10.75,8.67,15.39,18.32,15.39A47.81,47.81,0,0,0,331,154.92l2.2,10.26A53.37,53.37,0,0,1,312.48,169c-19.29,0-30.65-11.85-30.65-30,0-16.49,10-32,29.06-32,19.3,0,25.65,15.88,25.65,28.95a37.28,37.28,0,0,1-.49,6.34Zm26.13-10.5c.12-5.49-2.32-14.53-12.33-14.53-9.28,0-13.19,8.43-13.8,14.53Z"/><path class="cls-4" d="M348.62,81h15v86.71h-15Z"/><rect class="cls-4" x="380" y="108.28" width="15.02" height="59.47"/><path class="cls-6" d="M387.45,99.73c5.25,0,8.55-3.67,8.55-8.06a8.43,8.43,0,1,0-8.55,8.06Z"/><path class="cls-4" d="M467.8,137.46c0,21.86-15.38,31.63-30.53,31.63-16.73,0-29.79-11.48-29.79-30.65,0-19.54,12.82-31.51,30.77-31.51C456,106.93,467.8,119.39,467.8,137.46Zm-44.81.61c0,11.48,5.74,20.15,14.77,20.15,8.55,0,14.53-8.3,14.53-20.39,0-9.28-4.15-20-14.41-20C427.26,117.8,423,128.18,423,138.07Z"/><path class="cls-4" d="M480.13,126c0-6.84-.24-12.57-.49-17.7h13.07l.73,8.91h.37a21.84,21.84,0,0,1,19.05-10.26c10.38,0,21.13,6.72,21.13,25.53v35.29H519V134.17c0-8.55-3.18-15-11.36-15-6,0-10.14,4.28-11.72,8.8a13.88,13.88,0,0,0-.74,4.76v35.05h-15Z"/></g></g></svg>