<svg xmlns="http://www.w3.org/2000/svg" viewBox="0 0 520.38 134.79"><defs><style>.cls-1{fill:#353535;}.cls-2{fill:#49cc68;}</style></defs><title>Asset 4</title><g id="Layer_2" data-name="Layer 2"><g id="Layer_4" data-name="Layer 4"><path class="cls-1" d="M294.15,38.15c-1.85-8.64-6.28-13.32-15.69-13.32-14.22,0-19.76,11.7-19.94,37.08,5.35-8.46,16.24-13.5,28.61-13.5,23.45,0,40.07,14.94,40.07,42.29,0,26.09-17,44.09-46,44.09-40.63,0-50.6-28.07-50.6-67.31C230.63,22.5,245,0,279.93,0c29,0,41.92,18.72,43.58,38.15Zm-33,52.19c0,11.52,6.83,18.36,18.83,18.36,10.71,0,17.54-6.66,17.54-17.82,0-11-6.09-18.18-17.91-18.18C269.59,72.7,261.1,78.46,261.1,90.34Z"/><path class="cls-1" d="M366.84,29.36H348.56V0h51.15V134.79H366.84Z"/><path class="cls-2" d="M178.08,29.36H159.8V0H211V134.79H178.08Z"/><path class="cls-1" d="M423.82,34.81C423.82,16.34,438.77,0,470.53,0s46.53,16.34,46.53,34.81c0,13.32-7.2,22.73-17.36,27.88,13.11,6,20.68,16.87,20.68,31.61,0,25.93-22.34,40.49-49.85,40.49s-49.85-14.56-49.85-40.49c0-14.74,7.57-25.75,20.49-31.61C430.83,57.36,423.82,48.48,423.82,34.81Zm27.32,58.07c0,9.77,7.2,17.05,19.39,17.05,12,0,19-7.46,19-17.05,0-10.66-7.76-17-19-17S451.14,81.87,451.14,92.88Zm35.27-53.46c0-9.76-6.46-15.27-15.88-15.27s-15.88,5.51-15.88,15.45c0,9.41,6.83,14.92,15.88,14.92S486.41,48.84,486.41,39.42Z"/><rect class="cls-1" x="201.11" y="57.55" width="19.68" height="19.68" rx="9.84" ry="9.84" transform="translate(278.35 -143.56) rotate(90)"/><g id="Layer_6" data-name="Layer 6"><path class="cls-2" d="M67.38,0A67.38,67.38,0,0,0,0,67.42v67.37H92.1a41.62,41.62,0,1,1,42.65-41.58V0Z"/><path class="cls-2" d="M131.53,109.29a15.91,15.91,0,0,0-28.59,9.6,15.94,15.94,0,0,0,6.31,12.68,41.18,41.18,0,0,1-7.06,2.25,41.65,41.65,0,0,1-8,1h40.51V93.21a41.83,41.83,0,0,1-1,9A41.16,41.16,0,0,1,131.53,109.29Z"/><path class="cls-1" d="M118.84,103a15.9,15.9,0,0,0-15.9,15.91,15.72,15.72,0,0,0,.88,5.2,67.55,67.55,0,0,0,20.24-20.23A15.8,15.8,0,0,0,118.84,103Z"/></g></g></g></svg>